<svg width="15" height="20" viewBox="0 0 15 20" fill="none" xmlns="http://www.w3.org/2000/svg">
<path d="M10.0304 19.4638C9.86481 19.431 9.76739 19.3407 9.73816 19.1931C9.70894 19.0454 9.76739 18.9278 9.91352 18.8403C9.95249 18.0309 10.0499 17.2352 10.2058 16.4586C10.3617 15.682 10.4834 14.8863 10.5711 14.0769C10.6588 13.2675 10.6807 12.4609 10.6369 11.6624C10.593 10.8639 10.5468 10.0628 10.4981 9.26429C10.4786 8.84866 10.464 8.44123 10.4542 8.03926C10.4445 7.64003 10.4396 7.2326 10.4396 6.81423C10.4396 6.69392 10.4347 6.61188 10.425 6.56813C10.2594 6.72126 10.1254 6.91814 10.0231 7.15877C9.92083 7.3994 9.83071 7.6291 9.75278 7.84785C9.62613 8.16505 9.5214 8.49592 9.43859 8.84319C9.35578 9.18773 9.24618 9.5186 9.10979 9.83853C8.99288 10.101 8.85893 10.3553 8.70792 10.6014C8.55692 10.8475 8.45706 11.1182 8.40835 11.4136C8.38886 11.4573 8.35964 11.512 8.32067 11.5776C8.31093 11.6542 8.27926 11.7198 8.22568 11.7745C8.1721 11.8292 8.10147 11.8565 8.01379 11.8565C7.9943 11.8784 7.96264 11.8784 7.9188 11.8565C7.87496 11.8347 7.83356 11.8237 7.79459 11.8237H6.71076C6.51592 11.8237 6.33082 11.8073 6.15546 11.7745C6.07752 11.8401 5.98497 11.8675 5.87781 11.8565C5.78039 11.8347 5.70244 11.78 5.64399 11.6925C5.58554 11.605 5.52221 11.5229 5.45402 11.4464C5.31762 11.2604 5.19585 11.08 5.08868 10.905C4.98152 10.73 4.87923 10.5385 4.78181 10.3307C4.72335 10.1995 4.65272 10.019 4.56992 9.78931C4.48711 9.55961 4.39455 9.31351 4.29226 9.05101C4.18996 8.7885 4.08036 8.52599 3.96346 8.26075C3.84655 7.99825 3.72477 7.76855 3.59812 7.57167C3.63709 7.98731 3.66389 8.40021 3.6785 8.81311C3.69311 9.22328 3.71503 9.63618 3.74426 10.0545C3.79297 10.8749 3.85386 11.6979 3.92692 12.5183C3.99999 13.3386 4.06088 14.1672 4.10959 14.9984C4.10959 15.0531 4.12177 15.2391 4.14612 15.5562C4.17048 15.8734 4.1924 16.2317 4.21189 16.6336C4.23137 17.0328 4.24355 17.4293 4.24842 17.8258C4.25329 18.2196 4.24112 18.5259 4.21189 18.7473C4.27034 18.8348 4.28252 18.936 4.24842 19.0509C4.21432 19.1657 4.13395 19.2341 4.0073 19.2559C3.754 19.2559 3.47878 19.245 3.17921 19.2231C2.88207 19.2013 2.58493 19.1903 2.28779 19.1903C1.99066 19.1903 1.69596 19.2122 1.40856 19.2559C1.12117 19.2997 0.855692 19.3872 0.609701 19.5185C0.580474 19.5731 0.539067 19.6142 0.485485 19.6415C0.431903 19.6688 0.380755 19.6716 0.332044 19.6497C0.205395 19.6606 0.107977 19.606 0.0397815 19.4856C-0.028414 19.3653 -0.00893195 19.245 0.0982325 19.1247C0.107975 16.0238 0.122586 12.9394 0.142071 9.87407C0.161555 6.80876 0.176174 3.72158 0.185916 0.623453C0.166432 0.557826 0.156683 0.500403 0.156683 0.451183C0.156683 0.401963 0.176173 0.339071 0.215142 0.262507C0.273595 0.185942 0.344225 0.133988 0.427034 0.106643C0.509843 0.079299 0.599955 0.0656266 0.697377 0.0656266C0.794799 0.0656266 0.889789 0.0738299 0.98234 0.0902366C1.07489 0.106643 1.15526 0.114847 1.22346 0.114847C1.78851 0.103909 2.34869 0.0847678 2.89912 0.0574233C3.44956 0.0300789 4.00486 0.0109378 4.56017 0C4.69656 0.0546889 4.77693 0.139457 4.80129 0.254303C4.82564 0.36915 4.79886 0.470324 4.72092 0.557826C5.02293 1.0719 5.23725 1.5641 5.3639 2.02896C5.49055 2.49381 5.5831 2.96414 5.64156 3.43446C5.70001 3.90479 5.74872 4.39152 5.78769 4.88918C5.82666 5.38685 5.91434 5.9228 6.05073 6.49157C6.10918 6.72126 6.15546 6.89627 6.18956 7.01658C6.22366 7.1369 6.26505 7.24354 6.31377 7.33651C6.36248 7.42948 6.42093 7.52519 6.48913 7.62363C6.55732 7.72207 6.64988 7.86973 6.76678 8.06661C6.78627 8.11036 6.80088 8.14864 6.81062 8.18145C6.83011 8.12677 6.84228 8.08028 6.84715 8.042C6.85202 8.00372 6.85934 7.97364 6.86908 7.95176C6.94702 7.66738 7.04687 7.40761 7.16865 7.17244C7.29043 6.93728 7.41951 6.69392 7.5559 6.44235C7.78971 5.9939 8.00161 5.52357 8.19158 5.03684C8.38156 4.55011 8.56666 4.06065 8.74689 3.57392C8.92712 3.08719 9.11709 2.60319 9.31681 2.1274C9.51653 1.6516 9.7479 1.20042 10.0134 0.771113C9.93544 0.694548 9.90378 0.598843 9.91839 0.483996C9.93301 0.36915 10.0085 0.284382 10.1449 0.229693C10.4372 0.153129 10.7587 0.106643 11.1118 0.0902366C11.4625 0.0738299 11.8206 0.0738299 12.1883 0.0902366C12.5561 0.106643 12.9141 0.128519 13.2721 0.155863C13.6277 0.183208 13.9614 0.202349 14.2756 0.213287C14.3438 0.2461 14.4022 0.289851 14.451 0.34454C14.4607 0.355478 14.4704 0.363681 14.4802 0.36915C14.4899 0.374619 14.4997 0.382822 14.5094 0.39376C14.6945 0.907835 14.8212 1.44379 14.8894 1.99614C14.9576 2.5485 14.9941 3.10906 14.999 3.67236C15.0038 4.23565 14.9917 4.80168 14.9624 5.36498C14.9332 5.92827 14.9088 6.48063 14.8894 7.01658C14.7822 9.82212 14.6507 12.603 14.4948 15.3648C14.4753 15.7477 14.4534 16.0621 14.429 16.3082C14.4047 16.5543 14.3828 16.7758 14.3633 16.9727C14.3438 17.1696 14.3267 17.3664 14.3121 17.5633C14.2975 17.7602 14.2853 18.0008 14.2756 18.2852C14.2659 18.3727 14.2439 18.4712 14.2098 18.5805C14.1757 18.6899 14.1392 18.8048 14.1002 18.9251C14.2269 18.947 14.3146 19.0399 14.3633 19.204C14.3633 19.3024 14.3389 19.4173 14.2902 19.5485C14.2415 19.6798 14.1757 19.7864 14.0929 19.8685C14.0101 19.9505 13.92 19.9942 13.8226 19.9997C13.7252 20.0052 13.6326 19.9314 13.5449 19.7782C13.5254 19.7454 13.5084 19.7099 13.4938 19.6716C13.4792 19.6333 13.467 19.5923 13.4573 19.5485C12.9507 19.5048 12.4343 19.4501 11.9131 19.3845C11.3919 19.3188 10.8756 19.3243 10.369 19.4009C10.2813 19.4556 10.1985 19.4665 10.1205 19.4337C10.1011 19.4446 10.0864 19.4501 10.0767 19.4501C10.067 19.4501 10.0523 19.4556 10.0329 19.4665L10.0304 19.4638ZM6.22609 8.30724C6.22609 8.30724 6.23096 8.32365 6.2407 8.32365L6.22609 8.30724Z" fill="#F6C445"/>
</svg>
